<?xml version="1.0" encoding="utf-8"?>
<!-- Generator: Adobe Illustrator 25.2.1, SVG Export Plug-In . SVG Version: 6.00 Build 0)  -->
<svg version="1.1" id="Laag_1" xmlns="http://www.w3.org/2000/svg" xmlns:xlink="http://www.w3.org/1999/xlink" x="0px" y="0px"
	 viewBox="0 0 258 87" style="enable-background:new 0 0 258 87;" xml:space="preserve">
<style type="text/css">
	.st0{fill-rule:evenodd;clip-rule:evenodd;fill:#21A0DB;}
	.st1{fill:#21A0DB;}
	.st2{fill:#BED731;}
	.st3{fill-rule:evenodd;clip-rule:evenodd;fill:#BED731;}
</style>
<g>
	<g>
		<g>
			<g>
				<g>
					<g>
						<g>
							<path class="st0" d="M151.7,16c0,0-3,1.8-3.3,2.1c-5.4,3.6-10,8.7-13.3,14.5c-2.4,4.2-4.3,11.2-4.9,14.2
								c-1.8,11.7-5.5,19.3-12.4,25c12-2.2,19.9-7.3,23.4-18.6c3.3-10.8-0.6-27.1,8.4-33.9C152.5,17.5,151.1,17.2,151.7,16"/>
						</g>
					</g>
					<g>
						<g>
							<path class="st1" d="M150.2,19L170,6.4l16.8,10.2l16.5-10.2l16.9,10.2l16.6-10.2l16.3,10c0.3,0.3,0.9,0.1,1-0.3
								c0.3-0.3,0.1-0.9-0.3-1l-17-10.5l-16.6,10l-17-10.1l-16.5,10.2L170,4.5l-20.5,13.2c-0.3,0.3-0.4,0.7-0.3,1
								C149.3,19,149.8,19.2,150.2,19"/>
						</g>
					</g>
					<g>
						<g>
							<path class="st1" d="M8.7,37.1L8.7,37.1c1.9-3.3,4.9-4.9,8.4-4.9c8.7,0,9.3,7.8,9.3,10.9V60h-3.1V42.5c0-4.6-2.7-7.3-7-7.3
								c-5.2,0-7.6,4.5-7.6,9.3v15.6H5.4v-39h3.1v16H8.7z"/>
						</g>
					</g>
					<g>
						<g>
							<path class="st1" d="M57.7,46c0,6.9-3.9,13.9-12.3,13.9s-12.3-7-12.3-13.9S37,32.1,45.4,32.1S57.7,39.1,57.7,46 M45.4,34.9
								c-6.4,0-9,6.1-9,11.1c0,4.9,2.5,11.1,9,11.1s9-6.1,9-11.1C54.2,41,51.7,34.9,45.4,34.9"/>
						</g>
					</g>
					<g>
						<g>
							<path class="st1" d="M67.4,59.9h-3.1v-21c0-2.1-0.1-4.2-0.3-6.1h3.3l0.1,4h0.1c0.9-2.7,3.3-4.3,6-4.6c0.1,0,2.1-0.1,3.1-0.1
								v2.8c-0.6,0-1.8,0-1.9,0c-4.6,0.1-7.2,3.4-7.3,8.7C67.4,43.6,67.4,59.9,67.4,59.9z"/>
						</g>
					</g>
					<g>
						<g>
							<path class="st1" d="M84,34.9h-5.2v-3H84v-5.1l3.1-1.3v6.6h6v3h-6v18.3c0,2.4,1.2,3.7,3.6,3.7c0.9,0,1.9,0,2.7-0.3v2.7
								c-1,0.3-2.1,0.4-3.1,0.4c-6.7,0-6.3-4.3-6.3-7.9C84,52,84,34.9,84,34.9z"/>
						</g>
					</g>
					<g>
						<g>
							<path class="st1" d="M102.9,25.2h-3.7v-4h3.7V25.2z M102.6,59.9h-3.1V32.1h3.1V59.9z"/>
						</g>
					</g>
					<g>
						<g>
							<path class="st2" d="M172.4,55.3l-0.1-0.1c-2.1,3.1-5.4,4.9-9.1,4.9c-7.8,0-10.9-7.5-10.9-14.1c0-6.9,3-13.9,10.9-13.9
								c3.6,0,7.2,1.6,9.1,4.8l0.1-0.1V21.1h3.1v32.1c0,2.1,0.3,4.9,0.3,6.7h-3.3L172.4,55.3z M163.7,34.9c-6,0-7.9,5.5-7.9,10.6
								c0,4.9,1.5,11.5,7.5,11.5c6.9,0,9-5.7,9-11.7C172.2,40,170,34.9,163.7,34.9"/>
						</g>
					</g>
					<g>
						<g>
							<path class="st2" d="M198.5,40.6c-0.3-4.3-2.5-5.7-6.3-5.7c-3.3,0-6.1,1-6.4,4.6h-3.4c0.7-5.4,4.8-7.5,9.9-7.5
								c5.8,0,9.4,2.7,9.4,8.7v12.4c0,2.1,0.1,4.9,0.3,6.7h-3.1l-0.1-4.6h-0.1l-0.1,0.3c-1.2,2.2-4.6,4.3-8.2,4.3
								c-4.9,0-8.8-3-8.8-8.1c0-3.6,2.1-6.3,5.4-7.6c3.6-1.5,8.1-1,12-1.2v-2.4h-0.5V40.6z M190.5,57.1c6.9,0,8.2-5.7,7.9-11.2
								c-4.5,0.1-13.9-0.7-13.9,6C184.5,55.4,187.4,57.1,190.5,57.1"/>
						</g>
					</g>
					<g>
						<g>
							<path class="st2" d="M213.3,25.2h-3.6v-4h3.7L213.3,25.2L213.3,25.2z M213.1,59.9H210V32.1h3.1V59.9z"/>
						</g>
					</g>
					<g>
						<g>
							<rect x="221.7" y="21.1" class="st2" width="3.1" height="38.8"/>
						</g>
					</g>
					<g>
						<g>
							<polygon class="st2" points="233.4,32.8 242.2,55.4 251.2,32.8 254.6,32.8 239.9,70.2 236.5,70.2 240.5,59.9 229.5,32.8 
															"/>
						</g>
					</g>
					<g>
						<g>
							<path class="st3" d="M137.8,24.1c0-0.1-0.1-0.3-0.3-0.3c-13.3,3.7-22.9,12-24.9,27c-0.7,5.2,0.6,9.9-0.1,15.4
								c-0.9,7.3-7.3,13.5-14.4,11.8c2.8,0.6,5.7,0.1,7.8-0.9c8.1-3.9,13.6-9.1,17.7-17.7c2.8-6.3,3.3-13,5.2-19.3
								C131.1,33.8,133.7,28.3,137.8,24.1"/>
						</g>
					</g>
					<g>
						<g>
							<path class="st3" d="M16.8,76.7c16.9-6.6,36.5-2.1,58.3,1c13.9,2.1,28.6,4.6,40.4-6.7c3.3-4.3-1.3-7.6-2.7-6.6
								c-2.4,18.4-35.6,10-54.2,7.5c-13.5-1.5-26.2-3.6-37.6,0.7c-10.5,3.9-15.4,9.7-15.4,9.7S11.8,78,16.8,76.7"/>
						</g>
					</g>
				</g>
			</g>
		</g>
	</g>
</g>
</svg>
